M48
INCH,LZ
;FILE_FORMAT=2:4
;TYPE=PLATED
;Layer: PTH_Through
;EasyEDA v6.5.5, 2022-06-27 22:24:16
;832f08802b6e47e68c83d968e1e2cad1,305bcb4f1a4f4cdfadb131dd0c2083ea,10
;Gerber Generator version 0.2
;Holesize 1 = 0.0360 inch
T01C0.0360
%
G05
G90
T01
X027800Y010350
X027800Y011350
X027800Y012350
X027800Y013350
X027800Y014350
X027800Y015350
X027800Y016350
X027800Y017350
X027800Y018350
X027800Y019350
X027800Y020350
X027800Y021350
X027800Y022350
X027800Y023350
X027800Y024350
X021800Y010350
X021800Y011350
X021800Y012350
X021800Y013350
X021800Y014350
X021800Y015350
X021800Y016350
X021800Y017350
X021800Y018350
X021800Y019350
X021800Y020350
X021800Y021350
X021800Y022350
X021800Y023350
X021800Y024350
M30
