G04 Layer: BottomSilkscreenLayer*
G04 EasyEDA v6.5.5, 2022-06-27 22:24:16*
G04 832f08802b6e47e68c83d968e1e2cad1,305bcb4f1a4f4cdfadb131dd0c2083ea,10*
G04 Gerber Generator version 0.2*
G04 Scale: 100 percent, Rotated: No, Reflected: No *
G04 Dimensions in inches *
G04 leading zeros omitted , absolute positions ,3 integer and 6 decimal *
%FSLAX36Y36*%
%MOIN*%

%ADD10C,0.0001*%

%LPD*%
G36*
X1568920Y2275660D02*
G01*
X1545600Y2275480D01*
X1537420Y2275300D01*
X1530800Y2275040D01*
X1525880Y2274720D01*
X1522820Y2274340D01*
X1521819Y2274020D01*
X1520560Y2273100D01*
X1519139Y2271600D01*
X1517560Y2269540D01*
X1515800Y2266940D01*
X1513920Y2263840D01*
X1511900Y2260260D01*
X1509780Y2256240D01*
X1507560Y2251800D01*
X1502880Y2241780D01*
X1497960Y2230420D01*
X1492920Y2217980D01*
X1487860Y2204660D01*
X1460900Y2128220D01*
X1426940Y2032700D01*
X1364740Y1858500D01*
X1339339Y1787120D01*
X1551380Y1787120D01*
X1551399Y1788220D01*
X1551860Y1791560D01*
X1552840Y1796360D01*
X1554340Y1802520D01*
X1556300Y1809960D01*
X1558720Y1818580D01*
X1564780Y1838899D01*
X1572280Y1862740D01*
X1580980Y1889300D01*
X1592100Y1921920D01*
X1611819Y1978720D01*
X1626579Y2020560D01*
X1631260Y2033440D01*
X1633880Y2040120D01*
X1634079Y2040060D01*
X1634920Y2038660D01*
X1636300Y2035640D01*
X1640580Y2025120D01*
X1646660Y2009240D01*
X1654259Y1988779D01*
X1663080Y1964500D01*
X1672820Y1937160D01*
X1725260Y1787400D01*
X1629300Y1784139D01*
X1614620Y1783820D01*
X1600840Y1783680D01*
X1588240Y1783700D01*
X1577080Y1783860D01*
X1567620Y1784180D01*
X1560100Y1784660D01*
X1554780Y1785280D01*
X1553020Y1785640D01*
X1551920Y1786040D01*
X1551620Y1786240D01*
X1551420Y1786720D01*
X1551380Y1787120D01*
X1339339Y1787120D01*
X1305640Y1692100D01*
X1231220Y1481740D01*
X1442700Y1487400D01*
X1482660Y1612400D01*
X1787160Y1612400D01*
X1830440Y1482400D01*
X2037600Y1482400D01*
X2002220Y1584880D01*
X1966140Y1688160D01*
X1925320Y1804000D01*
X1876339Y1942160D01*
X1834740Y2058800D01*
X1801380Y2151640D01*
X1775720Y2222220D01*
X1768220Y2242420D01*
X1763600Y2254580D01*
X1762880Y2256220D01*
X1762040Y2257740D01*
X1761040Y2259180D01*
X1759880Y2260520D01*
X1758500Y2261780D01*
X1756920Y2262960D01*
X1755080Y2264060D01*
X1752980Y2265080D01*
X1750600Y2266020D01*
X1747920Y2266900D01*
X1744900Y2267700D01*
X1741540Y2268460D01*
X1737800Y2269140D01*
X1733680Y2269780D01*
X1729120Y2270380D01*
X1718700Y2271420D01*
X1706339Y2272300D01*
X1691879Y2273060D01*
X1675120Y2273720D01*
X1637720Y2274760D01*
X1608180Y2275320D01*
X1581140Y2275620D01*
G37*
G36*
X1076280Y2272400D02*
G01*
X1081260Y2148200D01*
X1081980Y2133520D01*
X1082800Y2119840D01*
X1083700Y2107060D01*
X1084700Y2095140D01*
X1085800Y2084019D01*
X1087040Y2073640D01*
X1088420Y2063899D01*
X1089920Y2054780D01*
X1091600Y2046180D01*
X1093920Y2036100D01*
X1096500Y2026620D01*
X1098200Y2021180D01*
X1100640Y2014160D01*
X1103280Y2007320D01*
X1105400Y2002300D01*
X1107100Y1998540D01*
X1109100Y1994379D01*
X1111220Y1990280D01*
X1113480Y1986220D01*
X1115860Y1982220D01*
X1118340Y1978280D01*
X1120940Y1974379D01*
X1123640Y1970560D01*
X1126460Y1966800D01*
X1129380Y1963100D01*
X1132400Y1959460D01*
X1135520Y1955900D01*
X1138720Y1952420D01*
X1142020Y1949000D01*
X1148880Y1942420D01*
X1154240Y1937700D01*
X1157900Y1934660D01*
X1161660Y1931699D01*
X1165460Y1928839D01*
X1173280Y1923400D01*
X1177280Y1920820D01*
X1185460Y1915980D01*
X1189620Y1913720D01*
X1193820Y1911560D01*
X1198080Y1909520D01*
X1202380Y1907580D01*
X1206720Y1905760D01*
X1211080Y1904060D01*
X1219920Y1901040D01*
X1224380Y1899700D01*
X1228860Y1898500D01*
X1233360Y1897440D01*
X1237880Y1896500D01*
X1242400Y1895680D01*
X1278800Y1889780D01*
X1278780Y1947360D01*
X1278660Y1954700D01*
X1278440Y1961160D01*
X1278040Y1966819D01*
X1277780Y1969379D01*
X1277060Y1973980D01*
X1276600Y1976060D01*
X1275460Y1979780D01*
X1274000Y1983040D01*
X1273120Y1984500D01*
X1272160Y1985860D01*
X1271080Y1987140D01*
X1269900Y1988340D01*
X1267200Y1990580D01*
X1265660Y1991620D01*
X1262180Y1993600D01*
X1258160Y1995500D01*
X1253520Y1997420D01*
X1243120Y2001339D01*
X1238660Y2003300D01*
X1234280Y2005600D01*
X1230000Y2008180D01*
X1225840Y2011040D01*
X1221800Y2014160D01*
X1217920Y2017500D01*
X1214220Y2021040D01*
X1210680Y2024780D01*
X1207360Y2028680D01*
X1204240Y2032720D01*
X1201380Y2036860D01*
X1198740Y2041120D01*
X1196400Y2045440D01*
X1194320Y2049820D01*
X1192560Y2054240D01*
X1191780Y2056440D01*
X1190500Y2060860D01*
X1189560Y2065260D01*
X1189000Y2069600D01*
X1188840Y2071740D01*
X1188800Y2073880D01*
X1188940Y2074800D01*
X1189320Y2075680D01*
X1189980Y2076480D01*
X1190880Y2077240D01*
X1192020Y2077940D01*
X1193400Y2078580D01*
X1195000Y2079180D01*
X1196820Y2079700D01*
X1198880Y2080160D01*
X1203580Y2080880D01*
X1209080Y2081339D01*
X1215320Y2081560D01*
X1222240Y2081480D01*
X1229800Y2081120D01*
X1278800Y2077260D01*
X1278800Y2272400D01*
G37*
G36*
X828800Y2272400D02*
G01*
X828900Y2163500D01*
X829080Y2149000D01*
X829400Y2135320D01*
X829860Y2122360D01*
X830500Y2110100D01*
X831320Y2098500D01*
X832300Y2087520D01*
X833480Y2077100D01*
X834860Y2067200D01*
X836440Y2057760D01*
X838240Y2048779D01*
X840280Y2040180D01*
X842540Y2031920D01*
X843760Y2027920D01*
X845720Y2022020D01*
X848560Y2014379D01*
X850860Y2008779D01*
X854160Y2001480D01*
X857760Y1994280D01*
X861640Y1987160D01*
X865819Y1980080D01*
X868020Y1976540D01*
X871480Y1971220D01*
X873720Y1968020D01*
X876220Y1964780D01*
X878920Y1961540D01*
X881860Y1958280D01*
X884980Y1955000D01*
X888300Y1951740D01*
X895440Y1945260D01*
X903199Y1938880D01*
X907280Y1935740D01*
X911460Y1932660D01*
X920100Y1926680D01*
X924539Y1923779D01*
X929040Y1920980D01*
X935879Y1916920D01*
X945100Y1911860D01*
X954320Y1907260D01*
X958920Y1905140D01*
X963460Y1903160D01*
X967960Y1901320D01*
X976780Y1898100D01*
X981060Y1896740D01*
X985240Y1895540D01*
X989320Y1894520D01*
X993259Y1893700D01*
X997080Y1893080D01*
X1000740Y1892640D01*
X1004240Y1892420D01*
X1008080Y1892420D01*
X1011979Y1892600D01*
X1015360Y1893040D01*
X1016880Y1893380D01*
X1018259Y1893820D01*
X1019539Y1894360D01*
X1020720Y1895020D01*
X1021800Y1895800D01*
X1022780Y1896720D01*
X1023660Y1897780D01*
X1024440Y1898980D01*
X1025160Y1900360D01*
X1025780Y1901920D01*
X1026340Y1903640D01*
X1027240Y1907700D01*
X1027900Y1912620D01*
X1028340Y1918460D01*
X1028620Y1925320D01*
X1028760Y1933280D01*
X1028760Y1950920D01*
X1028600Y1958440D01*
X1028300Y1965020D01*
X1027860Y1970720D01*
X1027220Y1975620D01*
X1026400Y1979760D01*
X1025920Y1981560D01*
X1025360Y1983200D01*
X1024760Y1984660D01*
X1024080Y1985980D01*
X1023360Y1987160D01*
X1022540Y1988180D01*
X1021680Y1989079D01*
X1020720Y1989860D01*
X1019700Y1990500D01*
X1018600Y1991060D01*
X1017400Y1991500D01*
X1016140Y1991840D01*
X1014780Y1992100D01*
X1011800Y1992360D01*
X1008620Y1992460D01*
X1007039Y1992640D01*
X1003700Y1993340D01*
X1000180Y1994480D01*
X996520Y1996020D01*
X992720Y1997920D01*
X988840Y2000160D01*
X984920Y2002720D01*
X980960Y2005540D01*
X977000Y2008620D01*
X973080Y2011920D01*
X969220Y2015400D01*
X965440Y2019040D01*
X961800Y2022820D01*
X958319Y2026680D01*
X955020Y2030600D01*
X951940Y2034560D01*
X949120Y2038520D01*
X946560Y2042440D01*
X944320Y2046320D01*
X942420Y2050120D01*
X940879Y2053779D01*
X939740Y2057300D01*
X939040Y2060640D01*
X938860Y2062220D01*
X938800Y2063760D01*
X938840Y2065620D01*
X939200Y2069000D01*
X939539Y2070500D01*
X940000Y2071900D01*
X940600Y2073180D01*
X941320Y2074360D01*
X942200Y2075440D01*
X943220Y2076440D01*
X944419Y2077340D01*
X945780Y2078140D01*
X947340Y2078860D01*
X949080Y2079500D01*
X951040Y2080080D01*
X955580Y2081000D01*
X961060Y2081660D01*
X967540Y2082100D01*
X975100Y2082320D01*
X983800Y2082400D01*
X1028800Y2082400D01*
X1028800Y2272400D01*
G37*
M02*
