G04 Layer: TopPasteMaskLayer*
G04 EasyEDA v6.5.5, 2022-06-27 22:24:16*
G04 832f08802b6e47e68c83d968e1e2cad1,305bcb4f1a4f4cdfadb131dd0c2083ea,10*
G04 Gerber Generator version 0.2*
G04 Scale: 100 percent, Rotated: No, Reflected: No *
G04 Dimensions in inches *
G04 leading zeros omitted , absolute positions ,3 integer and 6 decimal *
%FSLAX36Y36*%
%MOIN*%

%ADD12R,0.0354X0.0394*%

%LPD*%
G36*
X267960Y2747720D02*
G01*
X265980Y2745740D01*
X265980Y2714260D01*
X267960Y2712280D01*
X299440Y2712280D01*
X301420Y2714260D01*
X301420Y2723220D01*
X286840Y2723220D01*
X286840Y2736220D01*
X301420Y2736220D01*
X301420Y2745740D01*
X299440Y2747720D01*
G37*
G36*
X330940Y2747720D02*
G01*
X328980Y2745740D01*
X328980Y2736220D01*
X343940Y2736220D01*
X343940Y2723220D01*
X328980Y2723220D01*
X328980Y2714260D01*
X330940Y2712280D01*
X362040Y2712280D01*
X364020Y2714260D01*
X364020Y2745740D01*
X362040Y2747720D01*
G37*
G36*
X267960Y2622720D02*
G01*
X265980Y2620740D01*
X265980Y2589260D01*
X267960Y2587280D01*
X299440Y2587280D01*
X301420Y2589260D01*
X301420Y2598220D01*
X286840Y2598220D01*
X286840Y2611220D01*
X301420Y2611220D01*
X301420Y2620740D01*
X299440Y2622720D01*
G37*
G36*
X330940Y2622720D02*
G01*
X328980Y2620740D01*
X328980Y2611220D01*
X343940Y2611220D01*
X343940Y2598220D01*
X328980Y2598220D01*
X328980Y2589260D01*
X330940Y2587280D01*
X362040Y2587280D01*
X364020Y2589260D01*
X364020Y2620740D01*
X362040Y2622720D01*
G37*
G36*
X267960Y2517720D02*
G01*
X265980Y2515740D01*
X265980Y2484260D01*
X267960Y2482280D01*
X299440Y2482280D01*
X301420Y2484260D01*
X301420Y2493220D01*
X286840Y2493220D01*
X286840Y2506220D01*
X301420Y2506220D01*
X301420Y2515740D01*
X299440Y2517720D01*
G37*
G36*
X330940Y2517720D02*
G01*
X328980Y2515740D01*
X328980Y2506220D01*
X343940Y2506220D01*
X343940Y2493220D01*
X328980Y2493220D01*
X328980Y2484260D01*
X330940Y2482280D01*
X362040Y2482280D01*
X364020Y2484260D01*
X364020Y2515740D01*
X362040Y2517720D01*
G37*
G36*
X272960Y1822720D02*
G01*
X270980Y1820740D01*
X270980Y1789259D01*
X272960Y1787280D01*
X304440Y1787280D01*
X306420Y1789259D01*
X306420Y1798220D01*
X291840Y1798220D01*
X291840Y1811220D01*
X306420Y1811220D01*
X306420Y1820740D01*
X304440Y1822720D01*
G37*
G36*
X335940Y1822720D02*
G01*
X333980Y1820740D01*
X333980Y1811220D01*
X348940Y1811220D01*
X348940Y1798220D01*
X333980Y1798220D01*
X333980Y1789259D01*
X335940Y1787280D01*
X367040Y1787280D01*
X369020Y1789259D01*
X369020Y1820740D01*
X367040Y1822720D01*
G37*
G36*
X267960Y2377720D02*
G01*
X265980Y2375740D01*
X265980Y2344260D01*
X267960Y2342280D01*
X299440Y2342280D01*
X301420Y2344260D01*
X301420Y2353220D01*
X286840Y2353220D01*
X286840Y2366220D01*
X301420Y2366220D01*
X301420Y2375740D01*
X299440Y2377720D01*
G37*
G36*
X330940Y2377720D02*
G01*
X328980Y2375740D01*
X328980Y2366220D01*
X343940Y2366220D01*
X343940Y2353220D01*
X328980Y2353220D01*
X328980Y2344260D01*
X330940Y2342280D01*
X362040Y2342280D01*
X364020Y2344260D01*
X364020Y2375740D01*
X362040Y2377720D01*
G37*
G36*
X267960Y1582720D02*
G01*
X265980Y1580740D01*
X265980Y1549259D01*
X267960Y1547280D01*
X299440Y1547280D01*
X301420Y1549259D01*
X301420Y1558220D01*
X286840Y1558220D01*
X286840Y1571220D01*
X301420Y1571220D01*
X301420Y1580740D01*
X299440Y1582720D01*
G37*
G36*
X330940Y1582720D02*
G01*
X328980Y1580740D01*
X328980Y1571220D01*
X343940Y1571220D01*
X343940Y1558220D01*
X328980Y1558220D01*
X328980Y1549259D01*
X330940Y1547280D01*
X362040Y1547280D01*
X364020Y1549259D01*
X364020Y1580740D01*
X362040Y1582720D01*
G37*
G36*
X267960Y1977720D02*
G01*
X265980Y1975740D01*
X265980Y1944259D01*
X267960Y1942280D01*
X299440Y1942280D01*
X301420Y1944259D01*
X301420Y1953220D01*
X286840Y1953220D01*
X286840Y1966220D01*
X301420Y1966220D01*
X301420Y1975740D01*
X299440Y1977720D01*
G37*
G36*
X330940Y1977720D02*
G01*
X328980Y1975740D01*
X328980Y1966220D01*
X343940Y1966220D01*
X343940Y1953220D01*
X328980Y1953220D01*
X328980Y1944259D01*
X330940Y1942280D01*
X362040Y1942280D01*
X364020Y1944259D01*
X364020Y1975740D01*
X362040Y1977720D01*
G37*
G36*
X267960Y1697720D02*
G01*
X265980Y1695740D01*
X265980Y1664259D01*
X267960Y1662280D01*
X299440Y1662280D01*
X301420Y1664259D01*
X301420Y1673220D01*
X286840Y1673220D01*
X286840Y1686220D01*
X301420Y1686220D01*
X301420Y1695740D01*
X299440Y1697720D01*
G37*
G36*
X330940Y1697720D02*
G01*
X328980Y1695740D01*
X328980Y1686220D01*
X343940Y1686220D01*
X343940Y1673220D01*
X328980Y1673220D01*
X328980Y1664259D01*
X330940Y1662280D01*
X362040Y1662280D01*
X364020Y1664259D01*
X364020Y1695740D01*
X362040Y1697720D01*
G37*
G36*
X277960Y1457720D02*
G01*
X275980Y1455740D01*
X275980Y1424259D01*
X277960Y1422280D01*
X309440Y1422280D01*
X311420Y1424259D01*
X311420Y1433220D01*
X296860Y1433220D01*
X296860Y1446220D01*
X311420Y1446220D01*
X311420Y1455740D01*
X309440Y1457720D01*
G37*
G36*
X340940Y1457720D02*
G01*
X338980Y1455740D01*
X338980Y1446220D01*
X353940Y1446220D01*
X353940Y1433220D01*
X338980Y1433220D01*
X338980Y1424259D01*
X340940Y1422280D01*
X372040Y1422280D01*
X374020Y1424259D01*
X374020Y1455740D01*
X372040Y1457720D01*
G37*
G36*
X272960Y2247720D02*
G01*
X270980Y2245740D01*
X270980Y2214260D01*
X272960Y2212280D01*
X304440Y2212280D01*
X306420Y2214260D01*
X306420Y2223220D01*
X291840Y2223220D01*
X291840Y2236220D01*
X306420Y2236220D01*
X306420Y2245740D01*
X304440Y2247720D01*
G37*
G36*
X335940Y2247720D02*
G01*
X333980Y2245740D01*
X333980Y2236220D01*
X348940Y2236220D01*
X348940Y2223220D01*
X333980Y2223220D01*
X333980Y2214260D01*
X335940Y2212280D01*
X367040Y2212280D01*
X369020Y2214260D01*
X369020Y2245740D01*
X367040Y2247720D01*
G37*
G36*
X287960Y1332720D02*
G01*
X285980Y1330740D01*
X285980Y1299259D01*
X287960Y1297280D01*
X319440Y1297280D01*
X321420Y1299259D01*
X321420Y1308220D01*
X306860Y1308220D01*
X306860Y1321220D01*
X321420Y1321220D01*
X321420Y1330740D01*
X319440Y1332720D01*
G37*
G36*
X350940Y1332720D02*
G01*
X348980Y1330740D01*
X348980Y1321220D01*
X363940Y1321220D01*
X363940Y1308220D01*
X348980Y1308220D01*
X348980Y1299259D01*
X350940Y1297280D01*
X382040Y1297280D01*
X384020Y1299259D01*
X384020Y1330740D01*
X382040Y1332720D01*
G37*
G36*
X272960Y2117720D02*
G01*
X270980Y2115740D01*
X270980Y2084259D01*
X272960Y2082280D01*
X304440Y2082280D01*
X306420Y2084259D01*
X306420Y2093220D01*
X291840Y2093220D01*
X291840Y2106220D01*
X306420Y2106220D01*
X306420Y2115740D01*
X304440Y2117720D01*
G37*
G36*
X335940Y2117720D02*
G01*
X333980Y2115740D01*
X333980Y2106220D01*
X348940Y2106220D01*
X348940Y2093220D01*
X333980Y2093220D01*
X333980Y2084259D01*
X335940Y2082280D01*
X367040Y2082280D01*
X369020Y2084259D01*
X369020Y2115740D01*
X367040Y2117720D01*
G37*
G36*
X282960Y1227720D02*
G01*
X280980Y1225740D01*
X280980Y1194260D01*
X282960Y1192280D01*
X314440Y1192280D01*
X316420Y1194260D01*
X316420Y1203220D01*
X301840Y1203220D01*
X301840Y1216220D01*
X316420Y1216220D01*
X316420Y1225740D01*
X314440Y1227720D01*
G37*
G36*
X345940Y1227720D02*
G01*
X343980Y1225740D01*
X343980Y1216220D01*
X358940Y1216220D01*
X358940Y1203220D01*
X343980Y1203220D01*
X343980Y1194260D01*
X345940Y1192280D01*
X377040Y1192280D01*
X379020Y1194260D01*
X379020Y1225740D01*
X377040Y1227720D01*
G37*
D12*
G01*
X1686540Y2655000D03*
G01*
X1753469Y2655000D03*
G01*
X831540Y2650000D03*
G01*
X898469Y2650000D03*
G01*
X1941540Y1975001D03*
G01*
X2008470Y1975001D03*
G01*
X1256540Y1595001D03*
G01*
X1323470Y1595001D03*
G01*
X641541Y1970001D03*
G01*
X708470Y1970001D03*
G01*
X1826540Y1375001D03*
G01*
X1893470Y1375001D03*
G01*
X1586540Y1595001D03*
G01*
X1653470Y1595001D03*
G01*
X946540Y1595001D03*
G01*
X1013470Y1595001D03*
G01*
X751541Y1410001D03*
G01*
X818470Y1410001D03*
G01*
X1826540Y1780001D03*
G01*
X1893470Y1780001D03*
G01*
X1946540Y1215001D03*
G01*
X2013470Y1215001D03*
G01*
X736541Y1785001D03*
G01*
X803470Y1785001D03*
G01*
X646541Y1215001D03*
G01*
X713470Y1215001D03*
M02*
