G04 Layer: TopSilkscreenLayer*
G04 EasyEDA v6.5.5, 2022-06-27 22:24:16*
G04 832f08802b6e47e68c83d968e1e2cad1,305bcb4f1a4f4cdfadb131dd0c2083ea,10*
G04 Gerber Generator version 0.2*
G04 Scale: 100 percent, Rotated: No, Reflected: No *
G04 Dimensions in inches *
G04 leading zeros omitted , absolute positions ,3 integer and 6 decimal *
%FSLAX36Y36*%
%MOIN*%

%ADD10C,0.0100*%
%ADD15C,0.0059*%
%ADD16C,0.0060*%
%ADD17C,0.0200*%
%ADD18C,0.0080*%

%LPD*%
D16*
X1510002Y2745399D02*
G01*
X1510002Y2702500D01*
X1510002Y2702500D02*
G01*
X1534503Y2702500D01*
X1548002Y2745399D02*
G01*
X1548002Y2702500D01*
X1548002Y2745399D02*
G01*
X1574602Y2745399D01*
X1548002Y2725000D02*
G01*
X1564403Y2725000D01*
X1548002Y2702500D02*
G01*
X1574602Y2702500D01*
X1588103Y2745399D02*
G01*
X1588103Y2702500D01*
X1588103Y2745399D02*
G01*
X1602502Y2745399D01*
X1608603Y2743400D01*
X1612703Y2739299D01*
X1614702Y2735200D01*
X1616803Y2729000D01*
X1616803Y2718800D01*
X1614702Y2712700D01*
X1612703Y2708600D01*
X1608603Y2704499D01*
X1602502Y2702500D01*
X1588103Y2702500D01*
X1630303Y2737199D02*
G01*
X1634403Y2739299D01*
X1640502Y2745399D01*
X1640502Y2702500D01*
X610003Y2690399D02*
G01*
X610003Y2647500D01*
X610003Y2647500D02*
G01*
X634502Y2647500D01*
X648002Y2690399D02*
G01*
X648002Y2647500D01*
X648002Y2690399D02*
G01*
X674603Y2690399D01*
X648002Y2670000D02*
G01*
X664403Y2670000D01*
X648002Y2647500D02*
G01*
X674603Y2647500D01*
X688103Y2690399D02*
G01*
X688103Y2647500D01*
X688103Y2690399D02*
G01*
X702503Y2690399D01*
X708602Y2688400D01*
X712703Y2684299D01*
X714702Y2680200D01*
X716802Y2674000D01*
X716802Y2663800D01*
X714702Y2657700D01*
X712703Y2653600D01*
X708602Y2649499D01*
X702503Y2647500D01*
X688103Y2647500D01*
X732303Y2680200D02*
G01*
X732303Y2682199D01*
X734403Y2686300D01*
X736403Y2688400D01*
X740502Y2690399D01*
X748703Y2690399D01*
X752802Y2688400D01*
X754803Y2686300D01*
X756903Y2682199D01*
X756903Y2678099D01*
X754803Y2674000D01*
X750702Y2667899D01*
X730302Y2647500D01*
X758903Y2647500D01*
X1895002Y2085399D02*
G01*
X1895002Y2042500D01*
X1895002Y2042500D02*
G01*
X1919503Y2042500D01*
X1933002Y2085399D02*
G01*
X1933002Y2042500D01*
X1933002Y2085399D02*
G01*
X1959602Y2085399D01*
X1933002Y2065000D02*
G01*
X1949403Y2065000D01*
X1933002Y2042500D02*
G01*
X1959602Y2042500D01*
X1973103Y2085399D02*
G01*
X1973103Y2042500D01*
X1973103Y2085399D02*
G01*
X1987502Y2085399D01*
X1993603Y2083400D01*
X1997703Y2079299D01*
X1999702Y2075199D01*
X2001803Y2069000D01*
X2001803Y2058800D01*
X1999702Y2052699D01*
X1997703Y2048600D01*
X1993603Y2044499D01*
X1987502Y2042500D01*
X1973103Y2042500D01*
X2019403Y2085399D02*
G01*
X2041903Y2085399D01*
X2029602Y2069000D01*
X2035703Y2069000D01*
X2039803Y2066999D01*
X2041903Y2065000D01*
X2043903Y2058800D01*
X2043903Y2054699D01*
X2041903Y2048600D01*
X2037803Y2044499D01*
X2031602Y2042500D01*
X2025502Y2042500D01*
X2019403Y2044499D01*
X2017303Y2046500D01*
X2015303Y2050599D01*
X1215000Y1690399D02*
G01*
X1215000Y1647500D01*
X1215000Y1647500D02*
G01*
X1239499Y1647500D01*
X1253000Y1690399D02*
G01*
X1253000Y1647500D01*
X1253000Y1690399D02*
G01*
X1279600Y1690399D01*
X1253000Y1670000D02*
G01*
X1269399Y1670000D01*
X1253000Y1647500D02*
G01*
X1279600Y1647500D01*
X1293100Y1690399D02*
G01*
X1293100Y1647500D01*
X1293100Y1690399D02*
G01*
X1307500Y1690399D01*
X1313599Y1688400D01*
X1317700Y1684299D01*
X1319700Y1680199D01*
X1321800Y1674000D01*
X1321800Y1663800D01*
X1319700Y1657699D01*
X1317700Y1653600D01*
X1313599Y1649499D01*
X1307500Y1647500D01*
X1293100Y1647500D01*
X1345500Y1690399D02*
G01*
X1339399Y1688400D01*
X1337299Y1684299D01*
X1337299Y1680199D01*
X1339399Y1676100D01*
X1343500Y1674000D01*
X1351599Y1671999D01*
X1357799Y1670000D01*
X1361899Y1665900D01*
X1363900Y1661799D01*
X1363900Y1655599D01*
X1361899Y1651500D01*
X1359799Y1649499D01*
X1353699Y1647500D01*
X1345500Y1647500D01*
X1339399Y1649499D01*
X1337299Y1651500D01*
X1335299Y1655599D01*
X1335299Y1661799D01*
X1337299Y1665900D01*
X1341400Y1670000D01*
X1347500Y1671999D01*
X1355699Y1674000D01*
X1359799Y1676100D01*
X1361899Y1680199D01*
X1361899Y1684299D01*
X1359799Y1688400D01*
X1353699Y1690399D01*
X1345500Y1690399D01*
X600000Y2070399D02*
G01*
X600000Y2027500D01*
X600000Y2027500D02*
G01*
X624499Y2027500D01*
X638000Y2070399D02*
G01*
X638000Y2027500D01*
X638000Y2070399D02*
G01*
X664600Y2070399D01*
X638000Y2050000D02*
G01*
X654400Y2050000D01*
X638000Y2027500D02*
G01*
X664600Y2027500D01*
X678099Y2070399D02*
G01*
X678099Y2027500D01*
X678099Y2070399D02*
G01*
X692500Y2070399D01*
X698600Y2068400D01*
X702699Y2064299D01*
X704699Y2060199D01*
X706799Y2054000D01*
X706799Y2043800D01*
X704699Y2037699D01*
X702699Y2033600D01*
X698600Y2029499D01*
X692500Y2027500D01*
X678099Y2027500D01*
X740700Y2070399D02*
G01*
X720300Y2041799D01*
X750999Y2041799D01*
X740700Y2070399D02*
G01*
X740700Y2027500D01*
X1780000Y1475399D02*
G01*
X1780000Y1432500D01*
X1780000Y1432500D02*
G01*
X1804499Y1432500D01*
X1818000Y1475399D02*
G01*
X1818000Y1432500D01*
X1818000Y1475399D02*
G01*
X1844600Y1475399D01*
X1818000Y1455000D02*
G01*
X1834399Y1455000D01*
X1818000Y1432500D02*
G01*
X1844600Y1432500D01*
X1858100Y1475399D02*
G01*
X1858100Y1432500D01*
X1858100Y1475399D02*
G01*
X1872500Y1475399D01*
X1878599Y1473400D01*
X1882700Y1469299D01*
X1884700Y1465199D01*
X1886800Y1459000D01*
X1886800Y1448800D01*
X1884700Y1442699D01*
X1882700Y1438600D01*
X1878599Y1434499D01*
X1872500Y1432500D01*
X1858100Y1432500D01*
X1900299Y1467199D02*
G01*
X1904399Y1469299D01*
X1910500Y1475399D01*
X1910500Y1432500D01*
X1936300Y1475399D02*
G01*
X1930100Y1473400D01*
X1926000Y1467199D01*
X1923999Y1456999D01*
X1923999Y1450900D01*
X1926000Y1440599D01*
X1930100Y1434499D01*
X1936300Y1432500D01*
X1940399Y1432500D01*
X1946499Y1434499D01*
X1950600Y1440599D01*
X1952600Y1450900D01*
X1952600Y1456999D01*
X1950600Y1467199D01*
X1946499Y1473400D01*
X1940399Y1475399D01*
X1936300Y1475399D01*
X1560002Y1700399D02*
G01*
X1560002Y1657500D01*
X1560002Y1657500D02*
G01*
X1584503Y1657500D01*
X1598002Y1700399D02*
G01*
X1598002Y1657500D01*
X1598002Y1700399D02*
G01*
X1624602Y1700399D01*
X1598002Y1680000D02*
G01*
X1614403Y1680000D01*
X1598002Y1657500D02*
G01*
X1624602Y1657500D01*
X1638103Y1700399D02*
G01*
X1638103Y1657500D01*
X1638103Y1700399D02*
G01*
X1652502Y1700399D01*
X1658603Y1698400D01*
X1662703Y1694299D01*
X1664702Y1690199D01*
X1666803Y1684000D01*
X1666803Y1673800D01*
X1664702Y1667699D01*
X1662703Y1663600D01*
X1658603Y1659499D01*
X1652502Y1657500D01*
X1638103Y1657500D01*
X1708903Y1700399D02*
G01*
X1688503Y1657500D01*
X1680303Y1700399D02*
G01*
X1708903Y1700399D01*
X880000Y1690399D02*
G01*
X880000Y1647500D01*
X880000Y1647500D02*
G01*
X904499Y1647500D01*
X918000Y1690399D02*
G01*
X918000Y1647500D01*
X918000Y1690399D02*
G01*
X944600Y1690399D01*
X918000Y1670000D02*
G01*
X934399Y1670000D01*
X918000Y1647500D02*
G01*
X944600Y1647500D01*
X958100Y1690399D02*
G01*
X958100Y1647500D01*
X958100Y1690399D02*
G01*
X972500Y1690399D01*
X978599Y1688400D01*
X982700Y1684299D01*
X984700Y1680199D01*
X986800Y1674000D01*
X986800Y1663800D01*
X984700Y1657699D01*
X982700Y1653600D01*
X978599Y1649499D01*
X972500Y1647500D01*
X958100Y1647500D01*
X1026899Y1676100D02*
G01*
X1024799Y1670000D01*
X1020699Y1665900D01*
X1014600Y1663800D01*
X1012500Y1663800D01*
X1006400Y1665900D01*
X1002299Y1670000D01*
X1000299Y1676100D01*
X1000299Y1678099D01*
X1002299Y1684299D01*
X1006400Y1688400D01*
X1012500Y1690399D01*
X1014600Y1690399D01*
X1020699Y1688400D01*
X1024799Y1684299D01*
X1026899Y1676100D01*
X1026899Y1665900D01*
X1024799Y1655599D01*
X1020699Y1649499D01*
X1014600Y1647500D01*
X1010500Y1647500D01*
X1004399Y1649499D01*
X1002299Y1653600D01*
X1895000Y1305399D02*
G01*
X1895000Y1262500D01*
X1895000Y1262500D02*
G01*
X1919499Y1262500D01*
X1933000Y1305399D02*
G01*
X1933000Y1262500D01*
X1933000Y1305399D02*
G01*
X1959600Y1305399D01*
X1933000Y1285000D02*
G01*
X1949399Y1285000D01*
X1933000Y1262500D02*
G01*
X1959600Y1262500D01*
X1973100Y1305399D02*
G01*
X1973100Y1262500D01*
X1973100Y1305399D02*
G01*
X1987500Y1305399D01*
X1993599Y1303400D01*
X1997700Y1299299D01*
X1999700Y1295199D01*
X2001800Y1289000D01*
X2001800Y1278800D01*
X1999700Y1272699D01*
X1997700Y1268600D01*
X1993599Y1264499D01*
X1987500Y1262500D01*
X1973100Y1262500D01*
X2015299Y1297199D02*
G01*
X2019399Y1299299D01*
X2025500Y1305399D01*
X2025500Y1262500D01*
X2041000Y1295199D02*
G01*
X2041000Y1297199D01*
X2043100Y1301300D01*
X2045100Y1303400D01*
X2049200Y1305399D01*
X2057399Y1305399D01*
X2061499Y1303400D01*
X2063500Y1301300D01*
X2065600Y1297199D01*
X2065600Y1293099D01*
X2063500Y1289000D01*
X2059499Y1282899D01*
X2038999Y1262500D01*
X2067600Y1262500D01*
X1785000Y1885399D02*
G01*
X1785000Y1842500D01*
X1785000Y1842500D02*
G01*
X1809499Y1842500D01*
X1823000Y1885399D02*
G01*
X1823000Y1842500D01*
X1823000Y1885399D02*
G01*
X1849600Y1885399D01*
X1823000Y1865000D02*
G01*
X1839399Y1865000D01*
X1823000Y1842500D02*
G01*
X1849600Y1842500D01*
X1863100Y1885399D02*
G01*
X1863100Y1842500D01*
X1863100Y1885399D02*
G01*
X1877500Y1885399D01*
X1883599Y1883400D01*
X1887700Y1879299D01*
X1889700Y1875199D01*
X1891800Y1869000D01*
X1891800Y1858800D01*
X1889700Y1852699D01*
X1887700Y1848600D01*
X1883599Y1844499D01*
X1877500Y1842500D01*
X1863100Y1842500D01*
X1929799Y1885399D02*
G01*
X1909399Y1885399D01*
X1907299Y1866999D01*
X1909399Y1869000D01*
X1915500Y1871100D01*
X1921599Y1871100D01*
X1927799Y1869000D01*
X1931899Y1865000D01*
X1933900Y1858800D01*
X1933900Y1854699D01*
X1931899Y1848600D01*
X1927799Y1844499D01*
X1921599Y1842500D01*
X1915500Y1842500D01*
X1909399Y1844499D01*
X1907299Y1846500D01*
X1905299Y1850599D01*
X710003Y1510399D02*
G01*
X710003Y1467500D01*
X710003Y1467500D02*
G01*
X734502Y1467500D01*
X748002Y1510399D02*
G01*
X748002Y1467500D01*
X748002Y1510399D02*
G01*
X774602Y1510399D01*
X748002Y1490000D02*
G01*
X764403Y1490000D01*
X748002Y1467500D02*
G01*
X774602Y1467500D01*
X788103Y1510399D02*
G01*
X788103Y1467500D01*
X788103Y1510399D02*
G01*
X802502Y1510399D01*
X808603Y1508400D01*
X812703Y1504299D01*
X814702Y1500199D01*
X816802Y1494000D01*
X816802Y1483800D01*
X814702Y1477699D01*
X812703Y1473600D01*
X808603Y1469499D01*
X802502Y1467500D01*
X788103Y1467500D01*
X830303Y1502199D02*
G01*
X834403Y1504299D01*
X840502Y1510399D01*
X840502Y1467500D01*
X854003Y1502199D02*
G01*
X858103Y1504299D01*
X864202Y1510399D01*
X864202Y1467500D01*
X695000Y1880399D02*
G01*
X695000Y1837500D01*
X695000Y1837500D02*
G01*
X719499Y1837500D01*
X733000Y1880399D02*
G01*
X733000Y1837500D01*
X733000Y1880399D02*
G01*
X759600Y1880399D01*
X733000Y1860000D02*
G01*
X749400Y1860000D01*
X733000Y1837500D02*
G01*
X759600Y1837500D01*
X773100Y1880399D02*
G01*
X773100Y1837500D01*
X773100Y1880399D02*
G01*
X787500Y1880399D01*
X793599Y1878400D01*
X797700Y1874299D01*
X799700Y1870199D01*
X801800Y1864000D01*
X801800Y1853800D01*
X799700Y1847699D01*
X797700Y1843600D01*
X793599Y1839499D01*
X787500Y1837500D01*
X773100Y1837500D01*
X839799Y1874299D02*
G01*
X837799Y1878400D01*
X831599Y1880399D01*
X827500Y1880399D01*
X821400Y1878400D01*
X817299Y1872199D01*
X815299Y1861999D01*
X815299Y1851799D01*
X817299Y1843600D01*
X821400Y1839499D01*
X827500Y1837500D01*
X829600Y1837500D01*
X835699Y1839499D01*
X839799Y1843600D01*
X841899Y1849699D01*
X841899Y1851799D01*
X839799Y1857899D01*
X835699Y1861999D01*
X829600Y1864000D01*
X827500Y1864000D01*
X821400Y1861999D01*
X817299Y1857899D01*
X815299Y1851799D01*
X610003Y1305399D02*
G01*
X610003Y1262500D01*
X610003Y1262500D02*
G01*
X634502Y1262500D01*
X648002Y1305399D02*
G01*
X648002Y1262500D01*
X648002Y1305399D02*
G01*
X674603Y1305399D01*
X648002Y1285000D02*
G01*
X664403Y1285000D01*
X648002Y1262500D02*
G01*
X674603Y1262500D01*
X688103Y1305399D02*
G01*
X688103Y1262500D01*
X688103Y1305399D02*
G01*
X702503Y1305399D01*
X708602Y1303400D01*
X712703Y1299299D01*
X714702Y1295199D01*
X716802Y1289000D01*
X716802Y1278800D01*
X714702Y1272699D01*
X712703Y1268600D01*
X708602Y1264499D01*
X702503Y1262500D01*
X688103Y1262500D01*
X730302Y1297199D02*
G01*
X734403Y1299299D01*
X740502Y1305399D01*
X740502Y1262500D01*
X758103Y1305399D02*
G01*
X780603Y1305399D01*
X768302Y1289000D01*
X774503Y1289000D01*
X778503Y1286999D01*
X780603Y1285000D01*
X782602Y1278800D01*
X782602Y1274699D01*
X780603Y1268600D01*
X776503Y1264499D01*
X770402Y1262500D01*
X764202Y1262500D01*
X758103Y1264499D01*
X756003Y1266500D01*
X754002Y1270599D01*
X184998Y2755399D02*
G01*
X184998Y2712498D01*
X184998Y2755399D02*
G01*
X203398Y2755399D01*
X209499Y2753398D01*
X211599Y2751298D01*
X213598Y2747199D01*
X213598Y2743099D01*
X211599Y2738998D01*
X209499Y2736999D01*
X203398Y2734998D01*
X184998Y2734998D01*
X199299Y2734998D02*
G01*
X213598Y2712498D01*
X227098Y2747199D02*
G01*
X231199Y2749299D01*
X237399Y2755399D01*
X237399Y2712498D01*
X169998Y2630399D02*
G01*
X169998Y2587498D01*
X169998Y2630399D02*
G01*
X188398Y2630399D01*
X194499Y2628398D01*
X196599Y2626298D01*
X198598Y2622199D01*
X198598Y2618099D01*
X196599Y2613998D01*
X194499Y2611999D01*
X188398Y2609998D01*
X169998Y2609998D01*
X184299Y2609998D02*
G01*
X198598Y2587498D01*
X214198Y2620198D02*
G01*
X214198Y2622199D01*
X216199Y2626298D01*
X218299Y2628398D01*
X222399Y2630399D01*
X230498Y2630399D01*
X234598Y2628398D01*
X236698Y2626298D01*
X238699Y2622199D01*
X238699Y2618099D01*
X236698Y2613998D01*
X232599Y2607899D01*
X212098Y2587498D01*
X240799Y2587498D01*
X169998Y2510399D02*
G01*
X169998Y2467498D01*
X169998Y2510399D02*
G01*
X188398Y2510399D01*
X194499Y2508398D01*
X196599Y2506298D01*
X198598Y2502199D01*
X198598Y2498099D01*
X196599Y2493998D01*
X194499Y2491999D01*
X188398Y2489998D01*
X169998Y2489998D01*
X184299Y2489998D02*
G01*
X198598Y2467498D01*
X216199Y2510399D02*
G01*
X238699Y2510399D01*
X226498Y2493998D01*
X232599Y2493998D01*
X236698Y2491999D01*
X238699Y2489998D01*
X240799Y2483798D01*
X240799Y2479699D01*
X238699Y2473598D01*
X234598Y2469499D01*
X228499Y2467498D01*
X222399Y2467498D01*
X216199Y2469499D01*
X214198Y2471498D01*
X212098Y2475599D01*
X175000Y1825399D02*
G01*
X175000Y1782500D01*
X175000Y1825399D02*
G01*
X193400Y1825399D01*
X199499Y1823400D01*
X201599Y1821300D01*
X203600Y1817199D01*
X203600Y1813099D01*
X201599Y1809000D01*
X199499Y1806999D01*
X193400Y1805000D01*
X175000Y1805000D01*
X189299Y1805000D02*
G01*
X203600Y1782500D01*
X227399Y1825399D02*
G01*
X221199Y1823400D01*
X219200Y1819299D01*
X219200Y1815199D01*
X221199Y1811100D01*
X225300Y1809000D01*
X233499Y1806999D01*
X239600Y1805000D01*
X243699Y1800900D01*
X245799Y1796799D01*
X245799Y1790599D01*
X243699Y1786500D01*
X241700Y1784499D01*
X235500Y1782500D01*
X227399Y1782500D01*
X221199Y1784499D01*
X219200Y1786500D01*
X217100Y1790599D01*
X217100Y1796799D01*
X219200Y1800900D01*
X223299Y1805000D01*
X229400Y1806999D01*
X237600Y1809000D01*
X241700Y1811100D01*
X243699Y1815199D01*
X243699Y1819299D01*
X241700Y1823400D01*
X235500Y1825399D01*
X227399Y1825399D01*
X175000Y2380399D02*
G01*
X175000Y2337500D01*
X175000Y2380399D02*
G01*
X193400Y2380399D01*
X199499Y2378400D01*
X201599Y2376300D01*
X203600Y2372199D01*
X203600Y2368099D01*
X201599Y2364000D01*
X199499Y2361999D01*
X193400Y2360000D01*
X175000Y2360000D01*
X189299Y2360000D02*
G01*
X203600Y2337500D01*
X237600Y2380399D02*
G01*
X217100Y2351799D01*
X247800Y2351799D01*
X237600Y2380399D02*
G01*
X237600Y2337500D01*
X145001Y1585401D02*
G01*
X145001Y1542501D01*
X145001Y1585401D02*
G01*
X163400Y1585401D01*
X169501Y1583400D01*
X171601Y1581300D01*
X173600Y1577201D01*
X173600Y1573101D01*
X171601Y1569000D01*
X169501Y1567001D01*
X163400Y1565001D01*
X145001Y1565001D01*
X159301Y1565001D02*
G01*
X173600Y1542501D01*
X187100Y1577201D02*
G01*
X191201Y1579301D01*
X197400Y1585401D01*
X197400Y1542501D01*
X223101Y1585401D02*
G01*
X217001Y1583400D01*
X212901Y1577201D01*
X210900Y1567001D01*
X210900Y1560900D01*
X212901Y1550601D01*
X217001Y1544501D01*
X223101Y1542501D01*
X227201Y1542501D01*
X233400Y1544501D01*
X237501Y1550601D01*
X239501Y1560900D01*
X239501Y1567001D01*
X237501Y1577201D01*
X233400Y1583400D01*
X227201Y1585401D01*
X223101Y1585401D01*
X169998Y1980399D02*
G01*
X169998Y1937498D01*
X169998Y1980399D02*
G01*
X188398Y1980399D01*
X194499Y1978398D01*
X196599Y1976298D01*
X198598Y1972199D01*
X198598Y1968099D01*
X196599Y1963998D01*
X194499Y1961999D01*
X188398Y1959998D01*
X169998Y1959998D01*
X184299Y1959998D02*
G01*
X198598Y1937498D01*
X240799Y1980399D02*
G01*
X220298Y1937498D01*
X212098Y1980399D02*
G01*
X240799Y1980399D01*
X165000Y1700399D02*
G01*
X165000Y1657500D01*
X165000Y1700399D02*
G01*
X183400Y1700399D01*
X189499Y1698400D01*
X191599Y1696300D01*
X193600Y1692199D01*
X193600Y1688099D01*
X191599Y1684000D01*
X189499Y1681999D01*
X183400Y1680000D01*
X165000Y1680000D01*
X179299Y1680000D02*
G01*
X193600Y1657500D01*
X233699Y1686100D02*
G01*
X231700Y1680000D01*
X227600Y1675900D01*
X221500Y1673800D01*
X219400Y1673800D01*
X213299Y1675900D01*
X209200Y1680000D01*
X207100Y1686100D01*
X207100Y1688099D01*
X209200Y1694299D01*
X213299Y1698400D01*
X219400Y1700399D01*
X221500Y1700399D01*
X227600Y1698400D01*
X231700Y1694299D01*
X233699Y1686100D01*
X233699Y1675900D01*
X231700Y1665599D01*
X227600Y1659499D01*
X221500Y1657500D01*
X217399Y1657500D01*
X211199Y1659499D01*
X209200Y1663600D01*
X165000Y1455399D02*
G01*
X165000Y1412500D01*
X165000Y1455399D02*
G01*
X183400Y1455399D01*
X189499Y1453400D01*
X191599Y1451300D01*
X193600Y1447199D01*
X193600Y1443099D01*
X191599Y1439000D01*
X189499Y1436999D01*
X183400Y1435000D01*
X165000Y1435000D01*
X179299Y1435000D02*
G01*
X193600Y1412500D01*
X207100Y1447199D02*
G01*
X211199Y1449299D01*
X217399Y1455399D01*
X217399Y1412500D01*
X230900Y1447199D02*
G01*
X235000Y1449299D01*
X241100Y1455399D01*
X241100Y1412500D01*
X175001Y2250401D02*
G01*
X175001Y2207501D01*
X175001Y2250401D02*
G01*
X193400Y2250401D01*
X199501Y2248400D01*
X201601Y2246300D01*
X203600Y2242201D01*
X203600Y2238101D01*
X201601Y2234000D01*
X199501Y2232001D01*
X193400Y2230001D01*
X175001Y2230001D01*
X189301Y2230001D02*
G01*
X203600Y2207501D01*
X241700Y2250401D02*
G01*
X221201Y2250401D01*
X219200Y2232001D01*
X221201Y2234000D01*
X227400Y2236100D01*
X233501Y2236100D01*
X239600Y2234000D01*
X243701Y2230001D01*
X245801Y2223800D01*
X245801Y2219701D01*
X243701Y2213600D01*
X239600Y2209501D01*
X233501Y2207501D01*
X227400Y2207501D01*
X221201Y2209501D01*
X219200Y2211500D01*
X217100Y2215601D01*
X165000Y1340399D02*
G01*
X165000Y1297500D01*
X165000Y1340399D02*
G01*
X183400Y1340399D01*
X189499Y1338400D01*
X191599Y1336300D01*
X193600Y1332199D01*
X193600Y1328099D01*
X191599Y1324000D01*
X189499Y1321999D01*
X183400Y1320000D01*
X165000Y1320000D01*
X179299Y1320000D02*
G01*
X193600Y1297500D01*
X207100Y1332199D02*
G01*
X211199Y1334299D01*
X217399Y1340399D01*
X217399Y1297500D01*
X232899Y1330199D02*
G01*
X232899Y1332199D01*
X235000Y1336300D01*
X236999Y1338400D01*
X241100Y1340399D01*
X249299Y1340399D01*
X253400Y1338400D01*
X255399Y1336300D01*
X257500Y1332199D01*
X257500Y1328099D01*
X255399Y1324000D01*
X251300Y1317899D01*
X230900Y1297500D01*
X259499Y1297500D01*
X170001Y2120401D02*
G01*
X170001Y2077501D01*
X170001Y2120401D02*
G01*
X188400Y2120401D01*
X194501Y2118400D01*
X196601Y2116300D01*
X198600Y2112201D01*
X198600Y2108101D01*
X196601Y2104000D01*
X194501Y2102001D01*
X188400Y2100001D01*
X170001Y2100001D01*
X184301Y2100001D02*
G01*
X198600Y2077501D01*
X236700Y2114301D02*
G01*
X234600Y2118400D01*
X228501Y2120401D01*
X224400Y2120401D01*
X218301Y2118400D01*
X214200Y2112201D01*
X212100Y2102001D01*
X212100Y2091801D01*
X214200Y2083600D01*
X218301Y2079501D01*
X224400Y2077501D01*
X226500Y2077501D01*
X232600Y2079501D01*
X236700Y2083600D01*
X238701Y2089701D01*
X238701Y2091801D01*
X236700Y2097901D01*
X232600Y2102001D01*
X226500Y2104000D01*
X224400Y2104000D01*
X218301Y2102001D01*
X214200Y2097901D01*
X212100Y2091801D01*
X154998Y1230399D02*
G01*
X154998Y1187498D01*
X154998Y1230399D02*
G01*
X173398Y1230399D01*
X179499Y1228398D01*
X181599Y1226298D01*
X183598Y1222199D01*
X183598Y1218099D01*
X181599Y1213998D01*
X179499Y1211999D01*
X173398Y1209998D01*
X154998Y1209998D01*
X169299Y1209998D02*
G01*
X183598Y1187498D01*
X197098Y1222199D02*
G01*
X201199Y1224299D01*
X207399Y1230399D01*
X207399Y1187498D01*
X224998Y1230399D02*
G01*
X247498Y1230399D01*
X235198Y1213998D01*
X241298Y1213998D01*
X245399Y1211999D01*
X247498Y1209998D01*
X249499Y1203798D01*
X249499Y1199699D01*
X247498Y1193598D01*
X243398Y1189499D01*
X237199Y1187498D01*
X231098Y1187498D01*
X224998Y1189499D01*
X222899Y1191498D01*
X220898Y1195599D01*
X2650001Y2251300D02*
G01*
X2650001Y2217001D01*
X2650001Y2251300D02*
G01*
X2664700Y2251300D01*
X2669601Y2249701D01*
X2671301Y2248101D01*
X2672901Y2244801D01*
X2672901Y2241500D01*
X2671301Y2238200D01*
X2669601Y2236601D01*
X2664700Y2235001D01*
X2650001Y2235001D01*
X2661500Y2235001D02*
G01*
X2672901Y2217001D01*
X2701701Y2235001D02*
G01*
X2700101Y2238200D01*
X2695200Y2239901D01*
X2690300Y2239901D01*
X2685300Y2238200D01*
X2683701Y2235001D01*
X2685300Y2231700D01*
X2688600Y2230100D01*
X2696800Y2228400D01*
X2700101Y2226801D01*
X2701701Y2223501D01*
X2701701Y2221900D01*
X2700101Y2218600D01*
X2695200Y2217001D01*
X2690300Y2217001D01*
X2685300Y2218600D01*
X2683701Y2221900D01*
X2717401Y2251300D02*
G01*
X2717401Y2223501D01*
X2719101Y2218600D01*
X2722300Y2217001D01*
X2725600Y2217001D01*
X2712501Y2239901D02*
G01*
X2724000Y2239901D01*
X2673100Y2051300D02*
G01*
X2660001Y2017001D01*
X2673100Y2051300D02*
G01*
X2686201Y2017001D01*
X2664901Y2028400D02*
G01*
X2681301Y2028400D01*
X2719901Y2051300D02*
G01*
X2703500Y2017001D01*
X2697001Y2051300D02*
G01*
X2719901Y2051300D01*
X2673100Y1951300D02*
G01*
X2660001Y1917001D01*
X2673100Y1951300D02*
G01*
X2686201Y1917001D01*
X2664901Y1928400D02*
G01*
X2681301Y1928400D01*
X2716601Y1946401D02*
G01*
X2715001Y1949701D01*
X2710101Y1951300D01*
X2706800Y1951300D01*
X2701900Y1949701D01*
X2698600Y1944801D01*
X2697001Y1936601D01*
X2697001Y1928400D01*
X2698600Y1921900D01*
X2701900Y1918600D01*
X2706800Y1917001D01*
X2708401Y1917001D01*
X2713301Y1918600D01*
X2716601Y1921900D01*
X2718301Y1926801D01*
X2718301Y1928400D01*
X2716601Y1933301D01*
X2713301Y1936601D01*
X2708401Y1938200D01*
X2706800Y1938200D01*
X2701900Y1936601D01*
X2698600Y1933301D01*
X2697001Y1928400D01*
X2662901Y1846401D02*
G01*
X2659601Y1849701D01*
X2654700Y1851300D01*
X2648200Y1851300D01*
X2643301Y1849701D01*
X2640001Y1846401D01*
X2640001Y1843101D01*
X2641601Y1839900D01*
X2643301Y1838200D01*
X2646500Y1836601D01*
X2656400Y1833301D01*
X2659601Y1831700D01*
X2661301Y1830100D01*
X2662901Y1826801D01*
X2662901Y1821900D01*
X2659601Y1818600D01*
X2654700Y1817001D01*
X2648200Y1817001D01*
X2643301Y1818600D01*
X2640001Y1821900D01*
X2698301Y1843101D02*
G01*
X2696601Y1846401D01*
X2693301Y1849701D01*
X2690101Y1851300D01*
X2683500Y1851300D01*
X2680300Y1849701D01*
X2677001Y1846401D01*
X2675300Y1843101D01*
X2673701Y1838200D01*
X2673701Y1830100D01*
X2675300Y1825100D01*
X2677001Y1821900D01*
X2680300Y1818600D01*
X2683500Y1817001D01*
X2690101Y1817001D01*
X2693301Y1818600D01*
X2696601Y1821900D01*
X2698301Y1825100D01*
X2709101Y1851300D02*
G01*
X2709101Y1817001D01*
X2709101Y1817001D02*
G01*
X2728701Y1817001D01*
X2652901Y1746401D02*
G01*
X2649601Y1749701D01*
X2644700Y1751300D01*
X2638200Y1751300D01*
X2633301Y1749701D01*
X2630001Y1746401D01*
X2630001Y1743101D01*
X2631601Y1739900D01*
X2633301Y1738200D01*
X2636500Y1736601D01*
X2646400Y1733301D01*
X2649601Y1731700D01*
X2651301Y1730100D01*
X2652901Y1726801D01*
X2652901Y1721900D01*
X2649601Y1718600D01*
X2644700Y1717001D01*
X2638200Y1717001D01*
X2633301Y1718600D01*
X2630001Y1721900D01*
X2663701Y1751300D02*
G01*
X2663701Y1717001D01*
X2663701Y1751300D02*
G01*
X2675200Y1751300D01*
X2680101Y1749701D01*
X2683301Y1746401D01*
X2685001Y1743101D01*
X2686601Y1738200D01*
X2686601Y1730100D01*
X2685001Y1725100D01*
X2683301Y1721900D01*
X2680101Y1718600D01*
X2675200Y1717001D01*
X2663701Y1717001D01*
X2710501Y1751300D02*
G01*
X2697401Y1717001D01*
X2710501Y1751300D02*
G01*
X2723600Y1717001D01*
X2702300Y1728400D02*
G01*
X2718701Y1728400D01*
X2673100Y1651300D02*
G01*
X2660001Y1617001D01*
X2673100Y1651300D02*
G01*
X2686201Y1617001D01*
X2664901Y1628400D02*
G01*
X2681301Y1628400D01*
X2700300Y1651300D02*
G01*
X2718301Y1651300D01*
X2708401Y1638200D01*
X2713301Y1638200D01*
X2716601Y1636601D01*
X2718301Y1635001D01*
X2719901Y1630100D01*
X2719901Y1626801D01*
X2718301Y1621900D01*
X2715001Y1618600D01*
X2710101Y1617001D01*
X2705200Y1617001D01*
X2700300Y1618600D01*
X2698600Y1620201D01*
X2697001Y1623501D01*
X2673100Y1551300D02*
G01*
X2660001Y1517001D01*
X2673100Y1551300D02*
G01*
X2686201Y1517001D01*
X2664901Y1528400D02*
G01*
X2681301Y1528400D01*
X2698600Y1543101D02*
G01*
X2698600Y1544801D01*
X2700300Y1548101D01*
X2701900Y1549701D01*
X2705200Y1551300D01*
X2711701Y1551300D01*
X2715001Y1549701D01*
X2716601Y1548101D01*
X2718301Y1544801D01*
X2718301Y1541500D01*
X2716601Y1538200D01*
X2713301Y1533301D01*
X2697001Y1517001D01*
X2719901Y1517001D01*
X2673100Y1451300D02*
G01*
X2660001Y1417001D01*
X2673100Y1451300D02*
G01*
X2686201Y1417001D01*
X2664901Y1428400D02*
G01*
X2681301Y1428400D01*
X2697001Y1444801D02*
G01*
X2700300Y1446401D01*
X2705200Y1451300D01*
X2705200Y1417001D01*
X2673100Y1351300D02*
G01*
X2660001Y1317001D01*
X2673100Y1351300D02*
G01*
X2686201Y1317001D01*
X2664901Y1328400D02*
G01*
X2681301Y1328400D01*
X2706800Y1351300D02*
G01*
X2701900Y1349701D01*
X2698600Y1344801D01*
X2697001Y1336601D01*
X2697001Y1331700D01*
X2698600Y1323501D01*
X2701900Y1318600D01*
X2706800Y1317001D01*
X2710101Y1317001D01*
X2715001Y1318600D01*
X2718301Y1323501D01*
X2719901Y1331700D01*
X2719901Y1336601D01*
X2718301Y1344801D01*
X2715001Y1349701D01*
X2710101Y1351300D01*
X2706800Y1351300D01*
X2623100Y1251300D02*
G01*
X2610001Y1217001D01*
X2623100Y1251300D02*
G01*
X2636201Y1217001D01*
X2614901Y1228400D02*
G01*
X2631301Y1228400D01*
X2647001Y1251300D02*
G01*
X2647001Y1217001D01*
X2647001Y1251300D02*
G01*
X2661701Y1251300D01*
X2666601Y1249701D01*
X2668301Y1248101D01*
X2669901Y1244801D01*
X2669901Y1241500D01*
X2668301Y1238200D01*
X2666601Y1236601D01*
X2661701Y1235001D01*
X2647001Y1235001D01*
X2658401Y1235001D02*
G01*
X2669901Y1217001D01*
X2680700Y1230100D02*
G01*
X2700300Y1230100D01*
X2700300Y1233301D01*
X2698701Y1236601D01*
X2697101Y1238200D01*
X2693801Y1239900D01*
X2688900Y1239900D01*
X2685600Y1238200D01*
X2682300Y1235001D01*
X2680700Y1230100D01*
X2680700Y1226801D01*
X2682300Y1221900D01*
X2685600Y1218600D01*
X2688900Y1217001D01*
X2693801Y1217001D01*
X2697101Y1218600D01*
X2700300Y1221900D01*
X2724201Y1251300D02*
G01*
X2720901Y1251300D01*
X2717700Y1249701D01*
X2716000Y1244801D01*
X2716000Y1217001D01*
X2711100Y1239900D02*
G01*
X2722601Y1239900D01*
X2633301Y1151300D02*
G01*
X2651301Y1151300D01*
X2641500Y1138200D01*
X2646400Y1138200D01*
X2649601Y1136601D01*
X2651301Y1135001D01*
X2652901Y1130100D01*
X2652901Y1126801D01*
X2651301Y1121900D01*
X2648001Y1118600D01*
X2643100Y1117001D01*
X2638200Y1117001D01*
X2633301Y1118600D01*
X2631601Y1120201D01*
X2630001Y1123501D01*
X2663701Y1151300D02*
G01*
X2676800Y1117001D01*
X2689901Y1151300D02*
G01*
X2676800Y1117001D01*
X2704000Y1151300D02*
G01*
X2722001Y1151300D01*
X2712101Y1138200D01*
X2717101Y1138200D01*
X2720300Y1136601D01*
X2722001Y1135001D01*
X2723600Y1130100D01*
X2723600Y1126801D01*
X2722001Y1121900D01*
X2718701Y1118600D01*
X2713801Y1117001D01*
X2708900Y1117001D01*
X2704000Y1118600D01*
X2702300Y1120201D01*
X2700700Y1123501D01*
X2230001Y1151300D02*
G01*
X2230001Y1117001D01*
X2230001Y1151300D02*
G01*
X2241500Y1151300D01*
X2246400Y1149701D01*
X2249601Y1146401D01*
X2251301Y1143101D01*
X2252901Y1138200D01*
X2252901Y1130100D01*
X2251301Y1125100D01*
X2249601Y1121900D01*
X2246400Y1118600D01*
X2241500Y1117001D01*
X2230001Y1117001D01*
X2263701Y1144801D02*
G01*
X2267001Y1146401D01*
X2271900Y1151300D01*
X2271900Y1117001D01*
X2282700Y1144801D02*
G01*
X2286000Y1146401D01*
X2290901Y1151300D01*
X2290901Y1117001D01*
X2230001Y1251300D02*
G01*
X2230001Y1217001D01*
X2230001Y1251300D02*
G01*
X2241500Y1251300D01*
X2246400Y1249701D01*
X2249601Y1246401D01*
X2251301Y1243101D01*
X2252901Y1238200D01*
X2252901Y1230100D01*
X2251301Y1225100D01*
X2249601Y1221900D01*
X2246400Y1218600D01*
X2241500Y1217001D01*
X2230001Y1217001D01*
X2263701Y1244801D02*
G01*
X2267001Y1246401D01*
X2271900Y1251300D01*
X2271900Y1217001D01*
X2292501Y1251300D02*
G01*
X2287601Y1249701D01*
X2284300Y1244801D01*
X2282700Y1236601D01*
X2282700Y1231700D01*
X2284300Y1223501D01*
X2287601Y1218600D01*
X2292501Y1217001D01*
X2295801Y1217001D01*
X2300700Y1218600D01*
X2304000Y1223501D01*
X2305600Y1231700D01*
X2305600Y1236601D01*
X2304000Y1244801D01*
X2300700Y1249701D01*
X2295801Y1251300D01*
X2292501Y1251300D01*
X2230001Y1351300D02*
G01*
X2230001Y1317001D01*
X2230001Y1351300D02*
G01*
X2241500Y1351300D01*
X2246400Y1349701D01*
X2249601Y1346401D01*
X2251301Y1343101D01*
X2252901Y1338200D01*
X2252901Y1330100D01*
X2251301Y1325100D01*
X2249601Y1321900D01*
X2246400Y1318600D01*
X2241500Y1317001D01*
X2230001Y1317001D01*
X2285001Y1339900D02*
G01*
X2283301Y1335001D01*
X2280101Y1331700D01*
X2275200Y1330100D01*
X2273500Y1330100D01*
X2268600Y1331700D01*
X2265300Y1335001D01*
X2263701Y1339900D01*
X2263701Y1341500D01*
X2265300Y1346401D01*
X2268600Y1349701D01*
X2273500Y1351300D01*
X2275200Y1351300D01*
X2280101Y1349701D01*
X2283301Y1346401D01*
X2285001Y1339900D01*
X2285001Y1331700D01*
X2283301Y1323501D01*
X2280101Y1318600D01*
X2275200Y1317001D01*
X2271900Y1317001D01*
X2267001Y1318600D01*
X2265300Y1321900D01*
X2230001Y1451300D02*
G01*
X2230001Y1417001D01*
X2230001Y1451300D02*
G01*
X2241500Y1451300D01*
X2246400Y1449701D01*
X2249601Y1446401D01*
X2251301Y1443101D01*
X2252901Y1438200D01*
X2252901Y1430100D01*
X2251301Y1425100D01*
X2249601Y1421900D01*
X2246400Y1418600D01*
X2241500Y1417001D01*
X2230001Y1417001D01*
X2271900Y1451300D02*
G01*
X2267001Y1449701D01*
X2265300Y1446401D01*
X2265300Y1443101D01*
X2267001Y1439900D01*
X2270300Y1438200D01*
X2276800Y1436601D01*
X2281701Y1435001D01*
X2285001Y1431700D01*
X2286601Y1428400D01*
X2286601Y1423501D01*
X2285001Y1420201D01*
X2283301Y1418600D01*
X2278401Y1417001D01*
X2271900Y1417001D01*
X2267001Y1418600D01*
X2265300Y1420201D01*
X2263701Y1423501D01*
X2263701Y1428400D01*
X2265300Y1431700D01*
X2268600Y1435001D01*
X2273500Y1436601D01*
X2280101Y1438200D01*
X2283301Y1439900D01*
X2285001Y1443101D01*
X2285001Y1446401D01*
X2283301Y1449701D01*
X2278401Y1451300D01*
X2271900Y1451300D01*
X2230001Y1551300D02*
G01*
X2230001Y1517001D01*
X2230001Y1551300D02*
G01*
X2241500Y1551300D01*
X2246400Y1549701D01*
X2249601Y1546401D01*
X2251301Y1543101D01*
X2252901Y1538200D01*
X2252901Y1530100D01*
X2251301Y1525100D01*
X2249601Y1521900D01*
X2246400Y1518600D01*
X2241500Y1517001D01*
X2230001Y1517001D01*
X2286601Y1551300D02*
G01*
X2270300Y1517001D01*
X2263701Y1551300D02*
G01*
X2286601Y1551300D01*
X2230001Y1651300D02*
G01*
X2230001Y1617001D01*
X2230001Y1651300D02*
G01*
X2241500Y1651300D01*
X2246400Y1649701D01*
X2249601Y1646401D01*
X2251301Y1643101D01*
X2252901Y1638200D01*
X2252901Y1630100D01*
X2251301Y1625100D01*
X2249601Y1621900D01*
X2246400Y1618600D01*
X2241500Y1617001D01*
X2230001Y1617001D01*
X2283301Y1646401D02*
G01*
X2281701Y1649701D01*
X2276800Y1651300D01*
X2273500Y1651300D01*
X2268600Y1649701D01*
X2265300Y1644801D01*
X2263701Y1636601D01*
X2263701Y1628400D01*
X2265300Y1621900D01*
X2268600Y1618600D01*
X2273500Y1617001D01*
X2275200Y1617001D01*
X2280101Y1618600D01*
X2283301Y1621900D01*
X2285001Y1626801D01*
X2285001Y1628400D01*
X2283301Y1633301D01*
X2280101Y1636601D01*
X2275200Y1638200D01*
X2273500Y1638200D01*
X2268600Y1636601D01*
X2265300Y1633301D01*
X2263701Y1628400D01*
X2230001Y1751300D02*
G01*
X2230001Y1717001D01*
X2230001Y1751300D02*
G01*
X2241500Y1751300D01*
X2246400Y1749701D01*
X2249601Y1746401D01*
X2251301Y1743101D01*
X2252901Y1738200D01*
X2252901Y1730100D01*
X2251301Y1725100D01*
X2249601Y1721900D01*
X2246400Y1718600D01*
X2241500Y1717001D01*
X2230001Y1717001D01*
X2283301Y1751300D02*
G01*
X2267001Y1751300D01*
X2265300Y1736601D01*
X2267001Y1738200D01*
X2271900Y1739900D01*
X2276800Y1739900D01*
X2281701Y1738200D01*
X2285001Y1735001D01*
X2286601Y1730100D01*
X2286601Y1726801D01*
X2285001Y1721900D01*
X2281701Y1718600D01*
X2276800Y1717001D01*
X2271900Y1717001D01*
X2267001Y1718600D01*
X2265300Y1720201D01*
X2263701Y1723501D01*
X2230001Y1851300D02*
G01*
X2230001Y1817001D01*
X2230001Y1851300D02*
G01*
X2241500Y1851300D01*
X2246400Y1849701D01*
X2249601Y1846401D01*
X2251301Y1843101D01*
X2252901Y1838200D01*
X2252901Y1830100D01*
X2251301Y1825100D01*
X2249601Y1821900D01*
X2246400Y1818600D01*
X2241500Y1817001D01*
X2230001Y1817001D01*
X2280101Y1851300D02*
G01*
X2263701Y1828400D01*
X2288301Y1828400D01*
X2280101Y1851300D02*
G01*
X2280101Y1817001D01*
X2230001Y1951300D02*
G01*
X2230001Y1917001D01*
X2230001Y1951300D02*
G01*
X2241500Y1951300D01*
X2246400Y1949701D01*
X2249601Y1946401D01*
X2251301Y1943101D01*
X2252901Y1938200D01*
X2252901Y1930100D01*
X2251301Y1925100D01*
X2249601Y1921900D01*
X2246400Y1918600D01*
X2241500Y1917001D01*
X2230001Y1917001D01*
X2267001Y1951300D02*
G01*
X2285001Y1951300D01*
X2275200Y1938200D01*
X2280101Y1938200D01*
X2283301Y1936601D01*
X2285001Y1935001D01*
X2286601Y1930100D01*
X2286601Y1926801D01*
X2285001Y1921900D01*
X2281701Y1918600D01*
X2276800Y1917001D01*
X2271900Y1917001D01*
X2267001Y1918600D01*
X2265300Y1920201D01*
X2263701Y1923501D01*
X2230001Y2051300D02*
G01*
X2230001Y2017001D01*
X2230001Y2051300D02*
G01*
X2241500Y2051300D01*
X2246400Y2049701D01*
X2249601Y2046401D01*
X2251301Y2043101D01*
X2252901Y2038200D01*
X2252901Y2030100D01*
X2251301Y2025100D01*
X2249601Y2021900D01*
X2246400Y2018600D01*
X2241500Y2017001D01*
X2230001Y2017001D01*
X2265300Y2043101D02*
G01*
X2265300Y2044801D01*
X2267001Y2048101D01*
X2268600Y2049701D01*
X2271900Y2051300D01*
X2278401Y2051300D01*
X2281701Y2049701D01*
X2283301Y2048101D01*
X2285001Y2044801D01*
X2285001Y2041500D01*
X2283301Y2038200D01*
X2280101Y2033301D01*
X2263701Y2017001D01*
X2286601Y2017001D01*
X2230001Y2251300D02*
G01*
X2230001Y2217001D01*
X2230001Y2251300D02*
G01*
X2244700Y2251300D01*
X2249601Y2249701D01*
X2251301Y2248101D01*
X2252901Y2244801D01*
X2252901Y2241500D01*
X2251301Y2238200D01*
X2249601Y2236601D01*
X2244700Y2235001D01*
X2230001Y2235001D01*
X2241500Y2235001D02*
G01*
X2252901Y2217001D01*
X2281701Y2235001D02*
G01*
X2280101Y2238200D01*
X2275200Y2239901D01*
X2270300Y2239901D01*
X2265300Y2238200D01*
X2263701Y2235001D01*
X2265300Y2231700D01*
X2268600Y2230100D01*
X2276800Y2228400D01*
X2280101Y2226801D01*
X2281701Y2223501D01*
X2281701Y2221900D01*
X2280101Y2218600D01*
X2275200Y2217001D01*
X2270300Y2217001D01*
X2265300Y2218600D01*
X2263701Y2221900D01*
X2297401Y2251300D02*
G01*
X2297401Y2223501D01*
X2299101Y2218600D01*
X2302300Y2217001D01*
X2305600Y2217001D01*
X2292501Y2239901D02*
G01*
X2304000Y2239901D01*
X2230001Y2351300D02*
G01*
X2230001Y2317001D01*
X2230001Y2351300D02*
G01*
X2244700Y2351300D01*
X2249601Y2349701D01*
X2251301Y2348101D01*
X2252901Y2344801D01*
X2252901Y2341500D01*
X2251301Y2338200D01*
X2249601Y2336601D01*
X2244700Y2335001D01*
X2230001Y2335001D01*
X2241500Y2335001D02*
G01*
X2252901Y2317001D01*
X2263701Y2339901D02*
G01*
X2281701Y2317001D01*
X2281701Y2339901D02*
G01*
X2263701Y2317001D01*
X2254501Y2143101D02*
G01*
X2252901Y2146401D01*
X2249601Y2149701D01*
X2246400Y2151300D01*
X2239800Y2151300D01*
X2236500Y2149701D01*
X2233301Y2146401D01*
X2231601Y2143101D01*
X2230001Y2138200D01*
X2230001Y2130100D01*
X2231601Y2125100D01*
X2233301Y2121900D01*
X2236500Y2118600D01*
X2239800Y2117001D01*
X2246400Y2117001D01*
X2249601Y2118600D01*
X2252901Y2121900D01*
X2254501Y2125100D01*
X2254501Y2130100D01*
X2246400Y2130100D02*
G01*
X2254501Y2130100D01*
X2265300Y2151300D02*
G01*
X2265300Y2117001D01*
X2265300Y2151300D02*
G01*
X2288301Y2117001D01*
X2288301Y2151300D02*
G01*
X2288301Y2117001D01*
X2299101Y2151300D02*
G01*
X2299101Y2117001D01*
X2299101Y2151300D02*
G01*
X2310501Y2151300D01*
X2315401Y2149701D01*
X2318701Y2146401D01*
X2320300Y2143101D01*
X2322001Y2138200D01*
X2322001Y2130100D01*
X2320300Y2125100D01*
X2318701Y2121900D01*
X2315401Y2118600D01*
X2310501Y2117001D01*
X2299101Y2117001D01*
X2650001Y1051300D02*
G01*
X2650001Y1017001D01*
X2650001Y1051300D02*
G01*
X2661500Y1051300D01*
X2666400Y1049701D01*
X2669601Y1046401D01*
X2671301Y1043101D01*
X2672901Y1038200D01*
X2672901Y1030100D01*
X2671301Y1025100D01*
X2669601Y1021900D01*
X2666400Y1018600D01*
X2661500Y1017001D01*
X2650001Y1017001D01*
X2683701Y1044801D02*
G01*
X2687001Y1046401D01*
X2691900Y1051300D01*
X2691900Y1017001D01*
X2706000Y1051300D02*
G01*
X2724000Y1051300D01*
X2714101Y1038200D01*
X2719101Y1038200D01*
X2722300Y1036601D01*
X2724000Y1035001D01*
X2725600Y1030100D01*
X2725600Y1026801D01*
X2724000Y1021900D01*
X2720700Y1018600D01*
X2715801Y1017001D01*
X2710901Y1017001D01*
X2706000Y1018600D01*
X2704300Y1020201D01*
X2702700Y1023501D01*
X2650001Y2451300D02*
G01*
X2663100Y2417001D01*
X2676201Y2451300D02*
G01*
X2663100Y2417001D01*
X2687001Y2451300D02*
G01*
X2688600Y2449701D01*
X2690300Y2451300D01*
X2688600Y2453000D01*
X2687001Y2451300D01*
X2688600Y2439901D02*
G01*
X2688600Y2417001D01*
X2701100Y2439901D02*
G01*
X2701100Y2417001D01*
X2701100Y2433301D02*
G01*
X2706000Y2438200D01*
X2709201Y2439901D01*
X2714101Y2439901D01*
X2717401Y2438200D01*
X2719101Y2433301D01*
X2719101Y2417001D01*
X2230001Y1051300D02*
G01*
X2230001Y1017001D01*
X2230001Y1051300D02*
G01*
X2241500Y1051300D01*
X2246400Y1049701D01*
X2249601Y1046401D01*
X2251301Y1043101D01*
X2252901Y1038200D01*
X2252901Y1030100D01*
X2251301Y1025100D01*
X2249601Y1021900D01*
X2246400Y1018600D01*
X2241500Y1017001D01*
X2230001Y1017001D01*
X2263701Y1044801D02*
G01*
X2267001Y1046401D01*
X2271900Y1051300D01*
X2271900Y1017001D01*
X2284300Y1043101D02*
G01*
X2284300Y1044801D01*
X2286000Y1048101D01*
X2287601Y1049701D01*
X2290901Y1051300D01*
X2297401Y1051300D01*
X2300700Y1049701D01*
X2302300Y1048101D01*
X2304000Y1044801D01*
X2304000Y1041500D01*
X2302300Y1038200D01*
X2299101Y1033301D01*
X2282700Y1017001D01*
X2305600Y1017001D01*
X2644700Y2146401D02*
G01*
X2644700Y2117001D01*
X2630001Y2131700D02*
G01*
X2659501Y2131700D01*
X2689901Y2151300D02*
G01*
X2673500Y2151300D01*
X2671900Y2136601D01*
X2673500Y2138200D01*
X2678401Y2139901D01*
X2683301Y2139901D01*
X2688301Y2138200D01*
X2691500Y2135001D01*
X2693200Y2130100D01*
X2693200Y2126801D01*
X2691500Y2121900D01*
X2688301Y2118600D01*
X2683301Y2117001D01*
X2678401Y2117001D01*
X2673500Y2118600D01*
X2671900Y2120201D01*
X2670300Y2123501D01*
X2704000Y2139901D02*
G01*
X2713801Y2117001D01*
X2723600Y2139901D02*
G01*
X2713801Y2117001D01*
X2654501Y2343101D02*
G01*
X2652901Y2346401D01*
X2649601Y2349701D01*
X2646400Y2351300D01*
X2639800Y2351300D01*
X2636500Y2349701D01*
X2633301Y2346401D01*
X2631601Y2343101D01*
X2630001Y2338200D01*
X2630001Y2330100D01*
X2631601Y2325100D01*
X2633301Y2321900D01*
X2636500Y2318600D01*
X2639800Y2317001D01*
X2646400Y2317001D01*
X2649601Y2318600D01*
X2652901Y2321900D01*
X2654501Y2325100D01*
X2654501Y2330100D01*
X2646400Y2330100D02*
G01*
X2654501Y2330100D01*
X2665300Y2351300D02*
G01*
X2665300Y2317001D01*
X2665300Y2351300D02*
G01*
X2688301Y2317001D01*
X2688301Y2351300D02*
G01*
X2688301Y2317001D01*
X2699101Y2351300D02*
G01*
X2699101Y2317001D01*
X2699101Y2351300D02*
G01*
X2710501Y2351300D01*
X2715401Y2349701D01*
X2718701Y2346401D01*
X2720300Y2343101D01*
X2722001Y2338200D01*
X2722001Y2330100D01*
X2720300Y2325100D01*
X2718701Y2321900D01*
X2715401Y2318600D01*
X2710501Y2317001D01*
X2699101Y2317001D01*
X2241500Y2451300D02*
G01*
X2241500Y2417001D01*
X2230001Y2451300D02*
G01*
X2252901Y2451300D01*
X2263701Y2439901D02*
G01*
X2281701Y2417001D01*
X2281701Y2439901D02*
G01*
X2263701Y2417001D01*
D18*
X2380001Y985700D02*
G01*
X2380001Y931201D01*
X2383600Y920300D01*
X2390901Y913000D01*
X2401800Y909400D01*
X2409101Y909400D01*
X2420001Y913000D01*
X2427300Y920300D01*
X2430901Y931201D01*
X2430901Y985700D01*
X2505801Y974801D02*
G01*
X2498500Y982100D01*
X2487601Y985700D01*
X2473100Y985700D01*
X2462200Y982100D01*
X2454901Y974801D01*
X2454901Y967501D01*
X2458500Y960300D01*
X2462200Y956601D01*
X2469501Y953000D01*
X2491301Y945700D01*
X2498500Y942100D01*
X2502200Y938501D01*
X2505801Y931201D01*
X2505801Y920300D01*
X2498500Y913000D01*
X2487601Y909400D01*
X2473100Y909400D01*
X2462200Y913000D01*
X2454901Y920300D01*
X2529800Y985700D02*
G01*
X2529800Y909400D01*
X2529800Y985700D02*
G01*
X2562501Y985700D01*
X2573500Y982100D01*
X2577101Y978501D01*
X2580700Y971201D01*
X2580700Y963901D01*
X2577101Y956601D01*
X2573500Y953000D01*
X2562501Y949400D01*
X2529800Y949400D02*
G01*
X2562501Y949400D01*
X2573500Y945700D01*
X2577101Y942100D01*
X2580700Y934801D01*
X2580700Y923901D01*
X2577101Y916601D01*
X2573500Y913000D01*
X2562501Y909400D01*
X2529800Y909400D01*
D16*
X2475001Y2655401D02*
G01*
X2475001Y2624701D01*
X2477001Y2618600D01*
X2481100Y2614501D01*
X2487300Y2612501D01*
X2491400Y2612501D01*
X2497501Y2614501D01*
X2501601Y2618600D01*
X2503600Y2624701D01*
X2503600Y2655401D01*
X2519201Y2645201D02*
G01*
X2519201Y2647201D01*
X2521201Y2651300D01*
X2523301Y2653400D01*
X2527401Y2655401D01*
X2535501Y2655401D01*
X2539601Y2653400D01*
X2541701Y2651300D01*
X2543701Y2647201D01*
X2543701Y2643101D01*
X2541701Y2639000D01*
X2537601Y2632901D01*
X2517101Y2612501D01*
X2545801Y2612501D01*
G36*
X1724720Y2669160D02*
G01*
X1714500Y2655000D01*
X1724340Y2640820D01*
G37*
G36*
X869720Y2664160D02*
G01*
X859500Y2650000D01*
X869340Y2635820D01*
G37*
G36*
X1979720Y1989180D02*
G01*
X1969500Y1975000D01*
X1979340Y1960820D01*
G37*
G36*
X1294720Y1609180D02*
G01*
X1284500Y1595000D01*
X1294340Y1580820D01*
G37*
G36*
X679720Y1984180D02*
G01*
X669500Y1970000D01*
X679340Y1955820D01*
G37*
G36*
X1864720Y1389180D02*
G01*
X1854500Y1375000D01*
X1864340Y1360820D01*
G37*
G36*
X1624720Y1609180D02*
G01*
X1614500Y1595000D01*
X1624340Y1580820D01*
G37*
G36*
X984720Y1609180D02*
G01*
X974500Y1595000D01*
X984340Y1580820D01*
G37*
G36*
X789720Y1424180D02*
G01*
X779500Y1410000D01*
X789340Y1395820D01*
G37*
G36*
X1864720Y1794180D02*
G01*
X1854500Y1780000D01*
X1864340Y1765820D01*
G37*
G36*
X1984720Y1229180D02*
G01*
X1974500Y1215000D01*
X1984340Y1200820D01*
G37*
G36*
X774720Y1799180D02*
G01*
X764500Y1785000D01*
X774340Y1770820D01*
G37*
G36*
X684720Y1229180D02*
G01*
X674500Y1215000D01*
X684340Y1200820D01*
G37*
D15*
X1705433Y2626260D02*
G01*
X1660158Y2626260D01*
X1660158Y2683346D01*
X1707402Y2683346D01*
X1731810Y2683739D02*
G01*
X1780630Y2683739D01*
X1780630Y2626653D01*
X1731810Y2626653D01*
X1660158Y2626260D02*
G01*
X1658976Y2626260D01*
X1651102Y2634133D01*
X1651102Y2674290D01*
X1652283Y2675471D01*
X1660158Y2683346D01*
X850433Y2621260D02*
G01*
X805158Y2621260D01*
X805158Y2678346D01*
X852402Y2678346D01*
X876810Y2678739D02*
G01*
X925630Y2678739D01*
X925630Y2621653D01*
X876810Y2621653D01*
X805158Y2621260D02*
G01*
X803976Y2621260D01*
X796102Y2629133D01*
X796102Y2669290D01*
X797283Y2670471D01*
X805158Y2678346D01*
X1960433Y1946260D02*
G01*
X1915159Y1946260D01*
X1915159Y2003346D01*
X1962403Y2003346D01*
X1986812Y2003741D02*
G01*
X2035631Y2003741D01*
X2035631Y1946655D01*
X1986812Y1946655D01*
X1915159Y1946260D02*
G01*
X1913977Y1946260D01*
X1906103Y1954135D01*
X1906103Y1994292D01*
X1907285Y1995473D01*
X1915159Y2003346D01*
X1275433Y1566260D02*
G01*
X1230159Y1566260D01*
X1230159Y1623346D01*
X1277403Y1623346D01*
X1301812Y1623741D02*
G01*
X1350631Y1623741D01*
X1350631Y1566655D01*
X1301812Y1566655D01*
X1230159Y1566260D02*
G01*
X1228977Y1566260D01*
X1221103Y1574135D01*
X1221103Y1614292D01*
X1222285Y1615473D01*
X1230159Y1623346D01*
X660434Y1941260D02*
G01*
X615158Y1941260D01*
X615158Y1998346D01*
X662402Y1998346D01*
X686811Y1998741D02*
G01*
X735630Y1998741D01*
X735630Y1941655D01*
X686811Y1941655D01*
X615158Y1941260D02*
G01*
X613976Y1941260D01*
X606102Y1949135D01*
X606102Y1989292D01*
X607285Y1990473D01*
X615158Y1998346D01*
X1845433Y1346260D02*
G01*
X1800159Y1346260D01*
X1800159Y1403346D01*
X1847403Y1403346D01*
X1871812Y1403741D02*
G01*
X1920631Y1403741D01*
X1920631Y1346655D01*
X1871812Y1346655D01*
X1800159Y1346260D02*
G01*
X1798977Y1346260D01*
X1791103Y1354135D01*
X1791103Y1394292D01*
X1792285Y1395473D01*
X1800159Y1403346D01*
X1605433Y1566260D02*
G01*
X1560159Y1566260D01*
X1560159Y1623346D01*
X1607403Y1623346D01*
X1631812Y1623741D02*
G01*
X1680631Y1623741D01*
X1680631Y1566655D01*
X1631812Y1566655D01*
X1560159Y1566260D02*
G01*
X1558977Y1566260D01*
X1551103Y1574135D01*
X1551103Y1614292D01*
X1552285Y1615473D01*
X1560159Y1623346D01*
X965433Y1566260D02*
G01*
X920159Y1566260D01*
X920159Y1623346D01*
X967403Y1623346D01*
X991811Y1623741D02*
G01*
X1040631Y1623741D01*
X1040631Y1566655D01*
X991811Y1566655D01*
X920159Y1566260D02*
G01*
X918977Y1566260D01*
X911103Y1574135D01*
X911103Y1614292D01*
X912285Y1615473D01*
X920159Y1623346D01*
X770433Y1381260D02*
G01*
X725158Y1381260D01*
X725158Y1438346D01*
X772403Y1438346D01*
X796811Y1438741D02*
G01*
X845631Y1438741D01*
X845631Y1381655D01*
X796811Y1381655D01*
X725158Y1381260D02*
G01*
X723976Y1381260D01*
X716102Y1389135D01*
X716102Y1429292D01*
X717285Y1430473D01*
X725158Y1438346D01*
X1845433Y1751260D02*
G01*
X1800159Y1751260D01*
X1800159Y1808346D01*
X1847403Y1808346D01*
X1871812Y1808741D02*
G01*
X1920631Y1808741D01*
X1920631Y1751655D01*
X1871812Y1751655D01*
X1800159Y1751260D02*
G01*
X1798977Y1751260D01*
X1791103Y1759135D01*
X1791103Y1799292D01*
X1792285Y1800473D01*
X1800159Y1808346D01*
X1965433Y1186260D02*
G01*
X1920159Y1186260D01*
X1920159Y1243346D01*
X1967403Y1243346D01*
X1991812Y1243741D02*
G01*
X2040631Y1243741D01*
X2040631Y1186655D01*
X1991812Y1186655D01*
X1920159Y1186260D02*
G01*
X1918977Y1186260D01*
X1911103Y1194135D01*
X1911103Y1234292D01*
X1912285Y1235473D01*
X1920159Y1243346D01*
X755434Y1756260D02*
G01*
X710158Y1756260D01*
X710158Y1813346D01*
X757402Y1813346D01*
X781811Y1813741D02*
G01*
X830631Y1813741D01*
X830631Y1756655D01*
X781811Y1756655D01*
X710158Y1756260D02*
G01*
X708976Y1756260D01*
X701102Y1764135D01*
X701102Y1804292D01*
X702285Y1805473D01*
X710158Y1813346D01*
X665434Y1186260D02*
G01*
X620158Y1186260D01*
X620158Y1243346D01*
X667402Y1243346D01*
X691811Y1243741D02*
G01*
X740630Y1243741D01*
X740630Y1186655D01*
X691811Y1186655D01*
X620158Y1186260D02*
G01*
X618976Y1186260D01*
X611102Y1194135D01*
X611102Y1234292D01*
X612285Y1235473D01*
X620158Y1243346D01*
D16*
X298220Y2756008D02*
G01*
X260468Y2756008D01*
X260468Y2703991D01*
X298220Y2703991D01*
X331779Y2756008D02*
G01*
X369531Y2756008D01*
X369531Y2703991D01*
X331779Y2703991D01*
X298220Y2631008D02*
G01*
X260468Y2631008D01*
X260468Y2578991D01*
X298220Y2578991D01*
X331779Y2631008D02*
G01*
X369531Y2631008D01*
X369531Y2578991D01*
X331779Y2578991D01*
X298220Y2526008D02*
G01*
X260468Y2526008D01*
X260468Y2473991D01*
X298220Y2473991D01*
X331779Y2526008D02*
G01*
X369531Y2526008D01*
X369531Y2473991D01*
X331779Y2473991D01*
X303220Y1831008D02*
G01*
X265468Y1831008D01*
X265468Y1778991D01*
X303220Y1778991D01*
X336779Y1831008D02*
G01*
X374531Y1831008D01*
X374531Y1778991D01*
X336779Y1778991D01*
X298220Y2386008D02*
G01*
X260468Y2386008D01*
X260468Y2333991D01*
X298220Y2333991D01*
X331779Y2386008D02*
G01*
X369531Y2386008D01*
X369531Y2333991D01*
X331779Y2333991D01*
X298220Y1591008D02*
G01*
X260468Y1591008D01*
X260468Y1538991D01*
X298220Y1538991D01*
X331779Y1591008D02*
G01*
X369531Y1591008D01*
X369531Y1538991D01*
X331779Y1538991D01*
X298220Y1986008D02*
G01*
X260468Y1986008D01*
X260468Y1933991D01*
X298220Y1933991D01*
X331779Y1986008D02*
G01*
X369531Y1986008D01*
X369531Y1933991D01*
X331779Y1933991D01*
X298220Y1706008D02*
G01*
X260468Y1706008D01*
X260468Y1653991D01*
X298220Y1653991D01*
X331779Y1706008D02*
G01*
X369531Y1706008D01*
X369531Y1653991D01*
X331779Y1653991D01*
X308220Y1466008D02*
G01*
X270470Y1466008D01*
X270470Y1413993D01*
X308220Y1413993D01*
X341781Y1466008D02*
G01*
X379531Y1466008D01*
X379531Y1413993D01*
X341781Y1413993D01*
X303220Y2256008D02*
G01*
X265468Y2256008D01*
X265468Y2203991D01*
X303220Y2203991D01*
X336779Y2256008D02*
G01*
X374531Y2256008D01*
X374531Y2203991D01*
X336779Y2203991D01*
X318220Y1341008D02*
G01*
X280470Y1341008D01*
X280470Y1288993D01*
X318220Y1288993D01*
X351781Y1341008D02*
G01*
X389531Y1341008D01*
X389531Y1288993D01*
X351781Y1288993D01*
X303220Y2126008D02*
G01*
X265468Y2126008D01*
X265468Y2073991D01*
X303220Y2073991D01*
X336779Y2126008D02*
G01*
X374531Y2126008D01*
X374531Y2073991D01*
X336779Y2073991D01*
X313220Y1236008D02*
G01*
X275468Y1236008D01*
X275468Y1183991D01*
X313220Y1183991D01*
X346779Y1236008D02*
G01*
X384531Y1236008D01*
X384531Y1183991D01*
X346779Y1183991D01*
D10*
X2130001Y885001D02*
G01*
X2830001Y885001D01*
X2830001Y885001D02*
G01*
X2830001Y2585001D01*
X2830001Y2585001D02*
G01*
X2130001Y2585001D01*
X2130001Y2585001D02*
G01*
X2130001Y885001D01*
X2330001Y1035001D02*
G01*
X2330001Y735001D01*
X2630001Y735001D01*
X2630001Y1035001D01*
X2330001Y1035001D01*
D17*
G75*
G01
X2192001Y2535001D02*
G03X2192001Y2535001I-12000J0D01*
M02*
